<?xml version="1.0" encoding="utf-8"?>
<!-- Designed by Vexels.com - 2016 All Rights Reserved - https://vexels.com/terms-and-conditions/  -->

<svg version="1.1" id="Layer_1" xmlns="http://www.w3.org/2000/svg" xmlns:xlink="http://www.w3.org/1999/xlink" x="0px" y="0px"
	 width="48px" height="48px" viewBox="0 0 1200 1200" enable-background="new 0 0 1200 1200" xml:space="preserve">
<g>
	<path fill="#9FA0A2" d="M599.306,753.375c0,0-86.904-66.478,0-138.062l495.886-449.887c0,0,71.583-45.987,51.134,35.802
		L706.659,738.019C706.659,738.019,640.213,799.406,599.306,753.375z"/>
	<path fill="#535555" d="M599.306,753.375c0,0-86.904-66.478,0-138.062l495.886-449.887c0,0,71.583-45.987,51.134,35.802
		L706.659,738.019C706.659,738.019,640.213,799.406,599.306,753.375z"/>
	<path fill="#322B2E" d="M636.285,635.297l479.648-467.178c0,0,12.424-8.283,25.459-12.062c-15.286-10.06-46.201,9.369-46.201,9.369
		L599.306,615.313c-86.904,71.583,0,138.062,0,138.062c11.316,12.718,24.523,16.781,37.795,16.669
		C620.705,756.362,563.063,700.102,636.285,635.297z"/>
	<path fill="#322B2E" d="M543.316,743.09c0,0-109.047-95.583-233.406,59.507c0,0-192.107,149.334-259.91,109.14
		c0,0,573.217,377.31,530.84-126.282L543.316,743.09z"/>
	<path fill="#9FA0A2" d="M537.286,745.523l35.088-31.471c0,0,35.102,25.404,41.167,44.778l-32.701,26.625
		C580.84,785.455,553.003,787.877,537.286,745.523z"/>
</g>
</svg>
